P3
# Created by GIMP version 2.10.32 PNM plug-in
8 8
255
0
0
0
0
0
0
28
17
226
28
17
226
28
17
226
28
17
226
0
0
0
0
0
0
0
0
0
28
17
226
244
255
0
244
255
0
244
255
0
244
255
0
28
17
226
0
0
0
28
17
226
244
255
0
244
255
0
244
255
0
244
255
0
244
255
0
244
255
0
28
17
226
28
17
226
244
255
0
0
0
0
244
255
0
244
255
0
0
0
0
244
255
0
28
17
226
28
17
226
244
255
0
244
255
0
244
255
0
244
255
0
244
255
0
244
255
0
28
17
226
28
17
226
244
255
0
244
255
0
255
0
0
255
0
0
244
255
0
244
255
0
28
17
226
0
0
0
28
17
226
244
255
0
244
255
0
244
255
0
244
255
0
28
17
226
0
0
0
0
0
0
0
0
0
28
17
226
28
17
226
28
17
226
28
17
226
0
0
0
0
0
0
